<svg width="710" height="640" viewBox="0 0 710 640" fill="none" xmlns="http://www.w3.org/2000/svg">
<rect x="1.52945" width="187.202" height="189.41" transform="matrix(0.866025 -0.5 0.866025 0.5 379.399 385.718)" fill="#DC987C" stroke="black" stroke-width="1.76606"/>
<rect x="1.52945" width="162.477" height="153.647" transform="matrix(0.866025 -0.5 0.866025 0.5 405.017 388.147)" fill="white" stroke="black" stroke-width="1.76606"/>
<path d="M570.415 386.172C570.415 386.172 574.501 384.539 580.104 376.192C582.086 373.239 583.084 373.824 581.314 367.095C581.045 359.302 590.313 359.684 593.116 360.28C604.35 362.67 589.458 364.849 588.956 371.081C588.454 377.313 588.64 377.802 586.256 381.192C583.032 385.776 579.211 388.573 579.211 388.573L570.411 386.184L570.415 386.172Z" fill="url(#paint0_linear_0_1)"/>
<path d="M524.533 397.548C524.193 402.736 541.012 410.163 541.351 411.415C541.691 412.668 542.192 418.085 545.704 420.01C549.215 421.935 532.373 431.734 532.824 434.209C533.001 435.18 534.491 437.778 540.097 436.194C545.704 434.61 549.554 429.575 549.554 429.575L555.751 423.204C555.751 423.204 558.17 420.836 558.008 419.976C557.831 419.107 557.005 416.109 558.598 415.001C560.192 413.894 567.406 407.31 568.985 406.688C570.563 406.066 586.128 398.051 590.126 398.826C594.139 399.593 600.336 403.272 601.427 404.09C602.519 404.908 610.043 411.194 615.812 409.209C621.58 407.225 619.374 404.83 616.815 403.025C614.256 401.22 603.094 398.289 601.929 395.777C600.763 393.264 602.46 389.405 592.383 386.603C588.934 385.639 585.825 384.588 583.227 383.621C581.445 382.958 579.089 380.509 576.516 378.893C563.459 370.418 555.271 370.801 555.271 370.801C555.271 370.801 524.828 393.221 524.547 397.557L524.533 397.548Z" fill="url(#paint1_linear_0_1)"/>
<path d="M546.655 426.3C543.468 428.549 539.376 434.08 537.729 436.564C539.13 436.692 541.36 435.74 543.188 434.86C544.958 434.009 548.204 430.829 549.679 429.153L556.392 422.382C557.08 421.558 558.28 419.877 557.572 419.741C556.687 419.571 550.638 423.489 546.655 426.3Z" fill="#382E2A"/>
<path d="M571.127 401.38C579.014 396.826 576.907 388.227 566.421 382.172C555.934 376.118 541.039 374.901 533.152 379.455C525.264 384.009 527.371 392.608 537.858 398.663C548.345 404.717 563.24 405.934 571.127 401.38Z" fill="url(#paint2_linear_0_1)"/>
<path fill-rule="evenodd" clip-rule="evenodd" d="M511.678 381.83L511.769 381.954L511.604 381.873L514.776 386.26C514.776 386.26 517.686 395.505 522.068 398.546C524.888 400.509 534.281 400.849 540.138 401.061L540.138 401.061C542.614 401.15 544.459 401.217 544.906 401.374C545.504 401.584 547.4 402.19 549.552 402.879L549.552 402.879C552.815 403.923 556.667 405.156 557.476 405.479C558.818 406.016 563.687 407.004 565.959 404.875C566.844 404.057 568.069 401.152 560.456 398.784C559.375 398.448 558.421 398.148 557.564 397.879C552.391 396.254 550.786 395.75 546.293 395.071L546.308 395.062C545.053 394.869 543.651 394.74 542.154 394.602C540.148 394.418 537.973 394.217 535.759 393.827C535.527 393.786 535.26 393.754 534.966 393.718C534.173 393.621 533.193 393.502 532.231 393.138L551.148 377.446C556.796 378.744 561.204 381.394 561.596 382.147C562.791 384.353 563.337 388.825 563.337 389.319C563.323 391.053 565.122 392.979 568.797 396.912C569.003 397.131 569.213 397.357 569.43 397.589C573.532 401.985 578.681 401.363 579.979 400.767C582.885 399.463 581.779 396.899 581.026 395.869C580.569 395.264 575.302 389.855 574.358 388.986C573.97 388.627 573.55 387.296 572.998 385.549C571.747 381.587 569.82 375.482 566.052 373.697L566.052 373.663C560.519 371.048 551.291 370.204 551.291 370.204L538.126 368.323L536.169 367.946L511.678 381.83Z" fill="url(#paint3_linear_0_1)"/>
<path d="M563.757 390.859C563.325 389.922 563.29 389.425 563.388 389.198C566.87 386.098 572.142 387.665 574.232 388.815C574.872 389.468 576.224 390.885 577.109 391.668C577.994 392.452 580.65 395.161 581.461 396.566C582.15 398.043 582.42 401.038 577.994 401.208C572.462 401.421 569.511 397.673 568.921 397.162C568.331 396.651 564.401 392.253 563.757 390.859Z" fill="url(#paint4_linear_0_1)"/>
<path d="M549.447 395.629C547.824 395.379 546.865 395.331 544.725 395.97C539.355 397.98 543.25 400.257 545.242 401.464C546.373 401.833 549.565 402.784 550.922 403.295C552.279 403.806 555.422 404.871 559.036 405.936C561.594 406.333 566.408 406.444 566.703 403.888C567.092 400.518 560.585 398.823 559.7 398.483C558.815 398.142 551.861 396.001 549.447 395.629Z" fill="url(#paint5_linear_0_1)"/>
<path d="M584.486 361.26C589.797 358.619 595.944 360.675 597.046 361.953C598.073 363.143 594.825 364.248 593.485 365.519C591.936 366.583 590.593 367.849 589.797 368.755L587.51 368.968L587.967 365.776L585.15 367.606L584.486 364.156L581.24 366.881C581.388 364.496 582.098 362.638 584.486 361.26Z" fill="url(#paint6_linear_0_1)"/>
<path fill-rule="evenodd" clip-rule="evenodd" d="M532.259 393.116C526.843 387.755 525.884 382.487 531.981 378.967C537.555 375.748 543.319 375.285 551.955 377.657L532.259 393.116Z" fill="url(#paint7_linear_0_1)"/>
<g filter="url(#filter0_f_0_1)">
<path d="M588.53 389.095C592.838 386.336 596.177 387.406 597.308 388.286C599.963 389.819 600.701 391.097 601.66 394.888C602.427 397.92 599.668 398.678 598.193 398.678C596.962 398.678 594.481 394.644 591.788 392.478C589.317 390.489 586.468 390.416 588.53 389.095Z" fill="url(#paint8_linear_0_1)"/>
</g>
<path d="M509.034 359.835C509.034 359.835 505.287 353.123 507.175 350.67C509.064 348.217 512.354 349.861 512.354 349.861C512.354 349.861 516.485 351.053 521.338 355.372C526.192 359.691 522.017 362.561 522.017 362.561L509.034 359.852L509.034 359.835Z" fill="#372E29"/>
<path d="M509.595 359.801C509.595 359.801 506.334 353.949 507.972 351.811C509.639 349.673 512.486 351.096 512.486 351.096C512.486 351.096 516.086 352.135 520.321 355.891C524.54 359.656 520.911 362.161 520.911 362.161L509.595 359.801Z" fill="url(#paint9_linear_0_1)"/>
<path d="M499.135 367.101C499.135 367.101 487.008 364.835 482.449 366.479C477.89 368.123 486.668 371.999 486.668 371.999L488.335 372.399C488.335 372.399 489.206 373.447 490.003 373.788C490.799 374.128 495.447 374.886 495.447 374.886L499.12 367.093L499.135 367.101Z" fill="#372E29"/>
<path d="M498.707 367.655C498.707 367.655 488.158 365.687 484.19 367.109C480.206 368.54 487.863 371.922 487.863 371.922L489.309 372.263C489.309 372.263 490.076 373.183 490.755 373.472C491.433 373.762 495.491 374.435 495.491 374.435L498.692 367.646L498.707 367.655Z" fill="url(#paint10_linear_0_1)"/>
<path d="M501.407 362.024C498.574 363.779 496.095 365.414 495.269 367.765C494.443 370.116 493.617 373.694 494.561 376.488C496.228 381.402 496.258 382.101 496.258 382.101C496.258 382.101 497.644 380.551 497.733 379.835C497.836 379.111 498.471 383.362 503.87 383.753L502.867 382.305C502.867 382.305 512.088 383.251 514.581 382.765L513.77 382.263C513.77 382.263 526.133 380.559 530.899 377.075C534.085 374.741 537.803 372.97 537.67 367.203C537.67 367.203 539.529 367.97 540.193 368.711C540.857 369.452 538.924 364.554 538.025 364.103C538.025 364.103 539.544 364.469 539.751 364.639C539.972 364.801 535.811 360.372 535.148 360.312C534.484 360.253 537.139 359.793 537.139 359.793C537.139 359.793 530.19 357.825 528.907 357.902C527.623 357.978 529.438 357.067 529.438 357.067C529.438 357.067 513.858 357.135 509.831 358.2C505.803 359.264 502.838 361.13 501.362 362.033L501.407 362.024Z" fill="#524748"/>
<path d="M525.13 369.111C525.41 368.949 524.968 368.694 524.688 368.856C524.407 369.018 524.85 369.273 525.13 369.111Z" fill="black"/>
<path d="M515.777 375.227C516.057 375.065 515.614 374.81 515.334 374.972C515.054 375.133 515.496 375.389 515.777 375.227Z" fill="black"/>
<path d="M522.961 368.881C523.242 368.719 522.799 368.464 522.519 368.626C522.238 368.788 522.681 369.043 522.961 368.881Z" fill="black"/>
<path d="M523.493 368.694C524.525 368.012 525.248 367.186 525.986 366.385C528.17 363.966 529.925 361.42 532.035 358.975L532.064 358.992C531.091 360.73 529.763 362.399 528.361 364.026C527.299 365.253 526.222 366.471 524.953 367.629C524.525 368.012 524.068 368.396 523.522 368.728L523.493 368.711L523.493 368.694Z" fill="black"/>
<path d="M525.16 369.265C526.473 369.001 527.594 368.507 528.656 368.013C530.81 367.007 532.699 365.832 534.587 364.657C535.517 364.069 536.49 363.49 537.346 362.859L537.376 362.876C535.989 364.273 533.982 365.432 531.976 366.539C530.441 367.357 528.863 368.166 527.078 368.788C526.488 368.992 525.853 369.171 525.175 369.29L525.145 369.273L525.16 369.265Z" fill="black"/>
<path d="M525.558 368.081C526.842 367.544 527.874 366.828 528.966 366.164C530.043 365.491 531.091 364.801 532.123 364.103C533.982 362.808 536.033 361.454 537.862 360.142C537.966 360.048 538.098 359.955 538.172 359.861L538.202 359.878C538.187 359.989 538.054 360.082 537.966 360.185C536.387 361.658 534.381 362.953 532.374 364.23C530.781 365.253 529.143 366.266 527.402 367.22C526.812 367.527 526.237 367.859 525.573 368.106L525.543 368.089L525.558 368.081Z" fill="black"/>
<path d="M505.921 368.583C505.921 368.583 511.837 369.086 517.311 372.45C517.311 372.45 521.766 370.423 521.176 369.946C518.373 368.464 512.265 363.098 512.147 362.127C512.044 361.164 504.416 361.718 504.416 361.718L500.33 365.338L505.921 368.566L505.921 368.583Z" fill="url(#paint11_linear_0_1)"/>
<path d="M496.45 366.232C495.918 367.425 504.239 368.685 506.851 368.813C505.847 367.842 501.097 365.644 502.203 365.21C502.823 364.971 507.042 365.21 507.898 365.278C508.09 364.179 506.806 362.808 507.751 362.757C508.872 362.689 513.121 364.665 514.242 364.563C513.962 362.868 511.468 359.656 511.041 357.961C510.583 358.038 510.185 358.115 509.875 358.191C505.405 359.375 502.882 361.121 501.407 362.024C499.356 363.293 497.497 364.486 496.317 365.951C496.435 366.019 496.509 366.113 496.464 366.241L496.45 366.232Z" fill="url(#paint12_linear_0_1)"/>
<path d="M514.109 371.982C514.109 371.982 510.849 374.699 505.744 373.438C500.639 372.178 506.246 369.776 506.246 369.776C506.246 369.776 508.385 368.455 511.793 369.793C515.201 371.13 514.109 371.982 514.109 371.982Z" fill="#FFD75E"/>
<path d="M520.217 367.859C520.217 367.859 524.938 366.036 522.755 363.089C520.571 360.142 516.411 363.379 516.411 363.379C516.411 363.379 514.124 364.614 516.44 366.581C518.757 368.549 520.232 367.851 520.232 367.851L520.217 367.859Z" fill="#FFD75E"/>
<path d="M522.091 372.297L521.899 370.397C521.899 370.142 521.589 369.878 521.176 369.946C520.291 370.082 519.494 370.133 518.167 370.934C516.839 371.735 517.193 371.922 516.957 372.263C516.721 372.604 517.222 372.825 517.709 372.816L521.353 372.757C521.752 372.748 522.18 372.518 522.121 372.28L522.091 372.297Z" fill="black"/>
<path d="M507.647 370.636C507.382 370.823 507.279 371.07 507.338 371.309C507.411 371.641 507.647 372.067 508.238 372.356C509.152 372.816 510.141 373.097 511.837 372.867C513.15 372.689 513.726 372.101 513.755 371.76C513.785 371.419 513.829 370.764 511.1 370.176C509.241 369.784 508.164 370.269 507.662 370.627L507.647 370.636Z" fill="black"/>
<path d="M517.252 364.171C517.252 364.171 516.618 364.759 516.839 365.636C517.001 366.309 518.226 367.356 519.244 367.501C519.79 367.578 520.749 367.757 521.56 366.76C522.283 365.883 521.398 364.554 520.601 364.111C519.937 363.745 518.24 363.293 517.267 364.162L517.252 364.171Z" fill="black"/>
<path d="M514.921 376.198C516.706 376.377 518.801 376.479 520.35 375.857C521.929 375.236 522.283 373.975 521.988 372.936L521.973 372.859L522.121 372.859C523.271 372.893 524.452 372.774 525.514 372.552C527.801 372.101 528.996 370.917 529.128 369.563C529.217 368.898 529.099 368.2 528.966 367.544L529.04 367.535C529.497 368.345 529.792 369.231 529.615 370.099C529.35 371.888 526.886 372.953 523.906 373.021C523.286 373.038 522.711 373.029 522.106 372.987L522.239 372.91C522.298 373.472 522.327 374.035 522.165 374.605C521.826 375.943 520.07 376.616 517.798 376.581C516.795 376.564 515.836 376.454 514.936 376.224L514.965 376.19L514.921 376.198Z" fill="black"/>
<g filter="url(#filter1_f_0_1)">
<path d="M519.59 371.367C519.965 371.151 520.157 370.911 520.018 370.831C519.88 370.751 519.463 370.861 519.089 371.078C518.714 371.294 518.522 371.534 518.661 371.614C518.799 371.694 519.215 371.584 519.59 371.367Z" fill="#CECECE"/>
</g>
<g filter="url(#filter2_f_0_1)">
<path d="M504.494 378.264C503.713 376.977 502.343 376.083 501.433 376.267C500.524 376.451 500.42 377.643 501.201 378.93C501.983 380.218 503.353 381.112 504.262 380.928C505.172 380.744 505.275 379.551 504.494 378.264Z" fill="white"/>
</g>
<g filter="url(#filter3_f_0_1)">
<path d="M530.302 362.207C528.124 361.679 526.056 361.668 525.683 362.181C525.311 362.694 526.775 363.537 528.954 364.064C531.133 364.591 533.201 364.603 533.573 364.09C533.945 363.577 532.481 362.734 530.302 362.207Z" fill="white"/>
</g>
<path d="M493.602 378.83C498.633 377.97 504.815 376.888 509.802 375.985C511.587 375.67 513.431 375.406 515.172 375.014L515.201 375.031C514.39 375.312 513.49 375.491 512.605 375.678C509.949 376.241 507.234 376.701 504.52 377.127C501.82 377.544 496.258 378.489 493.617 378.822L493.602 378.83Z" fill="black"/>
<path d="M502.1 381.522C505.803 379.997 509.86 378.268 513.475 376.658C514.567 376.181 515.688 375.721 516.691 375.176C516.824 375.099 516.972 375.014 517.06 374.912L517.09 374.929C516.735 375.338 516.101 375.636 515.54 375.96C513.8 376.879 511.867 377.689 509.934 378.464C508.651 378.983 507.352 379.512 506.054 380.023C504.756 380.534 503.443 381.036 502.13 381.539L502.1 381.522Z" fill="black"/>
<g filter="url(#filter4_f_0_1)">
<ellipse cx="3.06643" cy="2.12947" rx="3.06643" ry="2.12947" transform="matrix(0.866025 -0.5 0.866025 0.5 514.279 375.218)" fill="#33302F"/>
</g>
<g filter="url(#filter5_f_0_1)">
<ellipse cx="3.06643" cy="2.12947" rx="3.06643" ry="2.12947" transform="matrix(0.866025 -0.5 0.866025 0.5 521.36 371.129)" fill="#33302F"/>
</g>
<rect x="-5.26326e-08" y="0.883029" width="187.202" height="189.41" transform="matrix(0.866025 0.5 -0.866025 0.5 536.692 386.72)" fill="#DC987C" stroke="black" stroke-width="1.76606"/>
<rect x="-5.26326e-08" y="0.883029" width="162.477" height="153.647" transform="matrix(0.866025 0.5 -0.866025 0.5 532.486 401.51)" fill="white" stroke="black" stroke-width="1.76606"/>
<path d="M533.816 496.68C533.816 496.68 536.644 499.039 551.102 502.273C556.217 503.418 555.204 503.994 566.859 502.972C580.356 502.817 579.695 508.168 578.662 509.786C574.523 516.272 570.748 507.674 559.955 507.384C549.161 507.094 548.314 507.201 542.443 505.825C534.502 503.964 529.657 501.758 529.657 501.758L533.796 496.677L533.816 496.68Z" fill="url(#paint13_linear_0_1)"/>
<path d="M514.112 470.189C505.127 469.993 492.262 479.704 490.093 479.9C487.924 480.095 478.541 480.385 475.207 482.412C471.873 484.44 454.9 474.716 450.613 474.976C448.931 475.078 444.431 475.939 447.175 479.176C449.92 482.412 458.639 484.636 458.639 484.636L469.674 488.213C469.674 488.213 473.776 489.61 475.266 489.516C476.771 489.414 481.964 488.937 483.882 489.857C485.8 490.777 497.204 494.942 498.281 495.854C499.358 496.765 513.241 505.751 511.899 508.06C510.571 510.377 504.197 513.954 502.781 514.584C501.365 515.215 490.477 519.559 493.914 522.889C497.352 526.22 501.499 524.946 504.625 523.468C507.751 521.991 512.828 515.547 517.18 514.874C521.532 514.201 528.216 515.181 533.07 509.363C534.739 507.371 536.56 505.576 538.234 504.077C539.382 503.048 543.625 501.687 546.423 500.202C561.103 492.663 560.439 487.936 560.439 487.936C560.439 487.936 521.606 470.36 514.097 470.198L514.112 470.189Z" fill="url(#paint14_linear_0_1)"/>
<path d="M464.313 482.961C460.418 481.121 450.838 478.759 446.535 477.808C446.313 478.617 447.962 479.904 449.485 480.959C450.961 481.982 456.469 483.856 459.37 484.707L471.099 488.583C472.525 488.98 475.437 489.673 475.673 489.264C475.968 488.753 469.181 485.261 464.313 482.961Z" fill="#382E2A"/>
<path d="M507.476 497.09C515.363 501.644 530.258 500.427 540.745 494.373C551.231 488.319 553.338 479.719 545.451 475.165C537.564 470.611 522.669 471.828 512.182 477.882C501.696 483.937 499.588 492.536 507.476 497.09Z" fill="url(#paint15_linear_0_1)"/>
<path fill-rule="evenodd" clip-rule="evenodd" d="M541.336 462.767L541.124 462.82L541.263 462.725L533.665 464.556C533.665 464.556 517.651 466.236 512.384 468.766C508.984 470.394 508.395 475.817 508.029 479.198C507.874 480.628 507.758 481.693 507.486 481.951C507.123 482.297 506.072 483.391 504.879 484.634L504.879 484.634C503.071 486.518 500.935 488.742 500.375 489.209C499.446 489.984 497.734 492.795 501.423 494.106C502.839 494.618 507.87 495.324 511.971 490.929C512.554 490.305 513.073 489.754 513.539 489.26C516.354 486.273 517.227 485.347 518.404 482.752L518.419 482.761C518.753 482.036 518.976 481.227 519.215 480.363C519.535 479.204 519.882 477.949 520.558 476.67C520.629 476.537 520.685 476.382 520.747 476.212C520.914 475.755 521.122 475.189 521.752 474.634L548.93 485.555C546.682 488.816 542.093 491.361 540.789 491.588C536.968 492.278 529.222 492.593 528.366 492.593C525.362 492.585 522.027 493.623 515.214 495.745C514.834 495.864 514.443 495.985 514.041 496.111C506.428 498.479 507.505 501.451 508.538 502.201C510.795 503.879 515.236 503.24 517.021 502.806C518.069 502.542 527.437 499.501 528.942 498.956C529.565 498.731 531.869 498.489 534.895 498.17C541.758 497.448 552.332 496.335 555.424 494.16L555.483 494.16C560.012 490.966 561.475 485.638 561.475 485.638L564.733 478.036L565.384 476.907L541.336 462.767Z" fill="url(#paint16_linear_0_1)"/>
<path d="M525.697 492.835C527.32 492.586 528.181 492.566 528.574 492.623C533.945 494.633 531.23 497.676 529.238 498.883C528.107 499.252 525.653 500.033 524.296 500.544C522.939 501.055 518.247 502.588 515.813 503.057C513.255 503.454 508.067 503.611 507.772 501.055C507.403 497.861 513.895 496.157 514.78 495.817C515.665 495.476 523.283 493.207 525.697 492.835Z" fill="url(#paint17_linear_0_1)"/>
<path d="M517.436 484.573C517.869 483.636 517.952 483.082 516.846 481.847C513.364 478.747 509.42 480.996 507.33 482.145C506.69 482.799 505.043 484.641 504.158 485.425C503.273 486.208 501.428 488.023 499.584 490.11C498.896 491.586 498.704 494.366 503.13 494.536C508.968 494.761 511.903 491.004 512.493 490.493C513.084 489.982 516.792 485.967 517.436 484.573Z" fill="url(#paint18_linear_0_1)"/>
<path d="M576.966 504.803C581.539 507.87 577.979 511.419 575.766 512.055C573.704 512.648 571.79 510.773 569.589 509.999C567.745 509.105 565.552 508.33 563.983 507.87L563.614 506.549L569.143 506.813L565.975 505.187L571.95 504.803L567.229 502.929C571.36 503.015 574.578 503.425 576.966 504.803Z" fill="url(#paint19_linear_0_1)"/>
<path fill-rule="evenodd" clip-rule="evenodd" d="M521.788 474.65C531.075 471.523 540.199 470.969 546.296 474.49C551.87 477.708 552.673 481.035 548.565 486.021L521.788 474.65Z" fill="url(#paint20_linear_0_1)"/>
<g filter="url(#filter6_f_0_1)">
<path d="M528.753 507.138C533.533 509.625 531.679 511.553 530.154 512.206C527.499 513.739 525.286 514.165 518.72 514.719C513.468 515.162 512.155 513.569 512.155 512.717C512.155 512.007 519.141 510.574 522.895 509.02C526.339 507.593 526.465 505.948 528.753 507.138Z" fill="url(#paint21_linear_0_1)"/>
</g>
<path d="M579.433 461.242C579.433 461.242 591.058 459.078 595.307 460.168C599.556 461.259 596.709 463.158 596.709 463.158C596.709 463.158 594.643 465.543 587.163 468.345C579.684 471.148 574.712 468.737 574.712 468.737L579.403 461.242L579.433 461.242Z" fill="#372E29"/>
<path d="M579.492 461.565C579.492 461.565 589.627 459.683 593.331 460.628C597.034 461.591 594.57 463.235 594.57 463.235C594.57 463.235 592.77 465.313 586.264 467.758C579.743 470.194 575.405 468.098 575.405 468.098L579.492 461.565Z" fill="url(#paint22_linear_0_1)"/>
<path d="M566.848 455.526C566.848 455.526 570.772 448.524 567.925 445.892C565.078 443.26 558.365 448.328 558.365 448.328L557.671 449.291C557.671 449.291 555.857 449.793 555.267 450.253C554.676 450.713 553.363 453.396 553.363 453.396L566.863 455.517L566.848 455.526Z" fill="#372E29"/>
<path d="M565.889 455.279C565.889 455.279 569.297 449.189 566.833 446.897C564.355 444.597 558.498 449.018 558.498 449.018L557.908 449.853C557.908 449.853 556.314 450.296 555.813 450.688C555.311 451.08 554.145 453.422 554.145 453.422L565.904 455.27L565.889 455.279Z" fill="url(#paint23_linear_0_1)"/>
<path d="M575.641 456.838C572.602 455.202 569.769 453.771 565.697 453.294C561.625 452.817 555.429 452.34 550.59 452.885C542.077 453.848 540.867 453.865 540.867 453.865C540.867 453.865 543.552 454.665 544.791 454.717C546.046 454.776 538.684 455.142 538.005 458.26L540.513 457.681C540.513 457.681 538.875 463.004 539.716 464.444L540.587 463.976C540.587 463.976 543.537 471.113 549.572 473.865C553.614 475.705 556.683 477.851 566.671 477.774C566.671 477.774 565.343 478.848 564.059 479.231C562.776 479.614 571.259 478.498 572.041 477.979C572.041 477.979 571.407 478.856 571.112 478.975C570.831 479.103 578.503 476.701 578.606 476.318C578.71 475.935 579.506 477.468 579.506 477.468C579.506 477.468 582.914 473.456 582.781 472.715C582.649 471.974 584.227 473.021 584.227 473.021C584.227 473.021 584.109 464.027 582.265 461.701C580.421 459.376 577.19 457.664 575.626 456.812L575.641 456.838Z" fill="#524748"/>
<path d="M563.366 470.534C563.646 470.696 564.089 470.441 563.809 470.279C563.528 470.117 563.086 470.373 563.366 470.534Z" fill="black"/>
<path d="M552.773 465.134C553.054 465.296 553.496 465.04 553.216 464.878C552.936 464.717 552.493 464.972 552.773 465.134Z" fill="black"/>
<path d="M563.764 469.282C564.045 469.444 564.487 469.188 564.207 469.027C563.927 468.865 563.484 469.12 563.764 469.282Z" fill="black"/>
<path d="M564.089 469.589C565.27 470.185 566.701 470.602 568.087 471.028C572.277 472.289 576.689 473.303 580.923 474.521L580.893 474.538C577.884 473.976 574.992 473.209 572.174 472.4C570.05 471.786 567.94 471.165 565.933 470.432C565.27 470.185 564.606 469.921 564.03 469.606L564.06 469.589L564.089 469.589Z" fill="black"/>
<path d="M563.101 470.551C563.558 471.309 564.414 471.957 565.269 472.57C567.01 473.814 569.046 474.904 571.082 475.994C572.1 476.531 573.103 477.093 574.195 477.587L574.166 477.604C571.746 476.803 569.74 475.645 567.822 474.486C566.405 473.601 565.004 472.689 563.927 471.659C563.573 471.318 563.263 470.952 563.056 470.56L563.086 470.543L563.101 470.551Z" fill="black"/>
<path d="M565.151 470.781C566.081 471.522 567.32 472.119 568.471 472.749C569.636 473.371 570.831 473.976 572.041 474.572C574.284 475.645 576.629 476.829 578.901 477.885C579.064 477.945 579.226 478.022 579.388 478.064L579.359 478.081C579.167 478.073 579.005 477.996 578.828 477.945C576.275 477.034 574.033 475.875 571.82 474.717C570.049 473.797 568.294 472.851 566.641 471.846C566.11 471.505 565.535 471.173 565.107 470.79L565.137 470.773L565.151 470.781Z" fill="black"/>
<path d="M564.281 459.444C564.281 459.444 563.411 462.86 557.583 466.02C557.583 466.02 561.094 468.592 561.92 468.252C564.488 466.633 573.782 463.107 575.464 463.039C577.131 462.979 576.172 458.575 576.172 458.575L569.902 456.216L564.31 459.444L564.281 459.444Z" fill="url(#paint24_linear_0_1)"/>
<path d="M568.353 453.976C566.287 453.669 564.104 458.473 563.882 459.981C565.564 459.401 569.371 456.659 570.123 457.297C570.536 457.655 570.123 460.091 570.005 460.585C571.908 460.696 574.284 459.955 574.372 460.5C574.49 461.148 571.067 463.601 571.244 464.248C574.18 464.086 579.742 462.647 582.678 462.4C582.545 462.136 582.413 461.906 582.28 461.727C580.229 459.146 577.205 457.689 575.641 456.838C573.443 455.654 571.377 454.58 568.84 453.899C568.721 453.967 568.559 454.01 568.338 453.984L568.353 453.976Z" fill="url(#paint25_linear_0_1)"/>
<path d="M558.394 464.172C558.394 464.172 553.688 462.289 555.871 459.342C558.055 456.395 562.215 459.632 562.215 459.632C562.215 459.632 564.502 460.867 562.186 462.834C559.869 464.802 558.394 464.172 558.394 464.172Z" fill="#FFD75E"/>
<path d="M565.535 467.698C565.535 467.698 568.692 470.424 573.797 469.163C578.901 467.902 573.295 465.5 573.295 465.5C573.295 465.5 571.156 464.18 567.748 465.517C564.34 466.855 565.55 467.706 565.55 467.706L565.535 467.698Z" fill="#FFD75E"/>
<path d="M557.848 468.78L561.138 468.669C561.581 468.669 562.038 468.49 561.92 468.252C561.684 467.741 561.596 467.281 560.209 466.514C558.822 465.747 558.497 465.952 557.907 465.816C557.317 465.679 556.934 465.969 556.948 466.25L557.052 468.354C557.066 468.584 557.465 468.831 557.878 468.797L557.848 468.78Z" fill="black"/>
<path d="M560.725 460.441C560.401 460.287 559.973 460.228 559.56 460.262C558.984 460.304 558.247 460.441 557.745 460.781C556.948 461.31 556.462 461.88 556.86 462.86C557.17 463.618 558.188 463.95 558.778 463.967C559.368 463.984 560.504 464.01 561.522 462.434C562.201 461.361 561.36 460.739 560.74 460.449L560.725 460.441Z" fill="black"/>
<path d="M571.923 465.986C571.923 465.986 570.905 465.62 569.386 465.747C568.22 465.841 566.405 466.548 566.155 467.136C566.022 467.451 565.712 468.005 567.438 468.473C568.958 468.89 571.259 468.379 572.026 467.919C572.661 467.536 573.443 466.557 571.938 465.994L571.923 465.986Z" fill="black"/>
<path d="M551.091 464.64C550.781 465.67 550.604 466.88 551.681 467.774C552.758 468.686 554.942 468.89 556.742 468.72L556.875 468.711L556.875 468.796C556.816 469.461 557.022 470.142 557.406 470.756C558.188 472.076 560.238 472.766 562.584 472.842C563.735 472.894 564.945 472.825 566.081 472.749L566.095 472.791C564.694 473.055 563.159 473.226 561.655 473.124C558.556 472.97 556.712 471.548 556.594 469.827C556.565 469.469 556.579 469.137 556.653 468.788L556.786 468.865C555.812 468.899 554.839 468.916 553.85 468.822C551.534 468.626 550.368 467.612 550.427 466.301C550.457 465.722 550.649 465.168 551.047 464.648L551.106 464.665L551.091 464.64Z" fill="black"/>
<g filter="url(#filter7_f_0_1)">
<path d="M559.458 467.336C559.833 467.552 560.249 467.663 560.388 467.583C560.526 467.503 560.335 467.263 559.96 467.046C559.585 466.83 559.169 466.719 559.03 466.799C558.892 466.879 559.083 467.119 559.458 467.336Z" fill="#CECECE"/>
</g>
<g filter="url(#filter8_f_0_1)">
<path d="M547.513 458.62C549.742 458.169 551.291 457.378 550.972 456.853C550.654 456.328 548.588 456.268 546.359 456.719C544.129 457.17 542.581 457.961 542.899 458.486C543.218 459.011 545.283 459.071 547.513 458.62Z" fill="white"/>
</g>
<g filter="url(#filter9_f_0_1)">
<path d="M575.325 473.52C576.238 472.263 576.258 471.069 575.369 470.854C574.481 470.639 573.02 471.484 572.107 472.742C571.194 474 571.175 475.194 572.063 475.409C572.952 475.624 574.412 474.778 575.325 473.52Z" fill="white"/>
</g>
<path d="M546.533 452.332C548.023 455.236 549.896 458.805 551.46 461.684C552.006 462.715 552.464 463.78 553.142 464.785L553.113 464.802C552.626 464.333 552.316 463.814 551.991 463.303C551.018 461.769 550.221 460.202 549.483 458.635C548.76 457.076 547.123 453.865 546.547 452.34L546.533 452.332Z" fill="black"/>
<path d="M541.871 457.238C544.511 459.376 547.506 461.718 550.295 463.805C551.121 464.435 551.918 465.083 552.862 465.662C552.995 465.739 553.142 465.824 553.319 465.875L553.29 465.892C552.582 465.688 552.065 465.321 551.505 464.998C549.911 463.992 548.51 462.877 547.167 461.761C546.267 461.02 545.352 460.27 544.467 459.521C543.582 458.771 542.712 458.013 541.841 457.255L541.871 457.238Z" fill="black"/>
<g filter="url(#filter10_f_0_1)">
<ellipse cx="3.06643" cy="2.12947" rx="3.06643" ry="2.12947" transform="matrix(0.866025 0.5 -0.866025 0.5 552.79 464.269)" fill="#33302F"/>
</g>
<g filter="url(#filter11_f_0_1)">
<ellipse cx="3.06643" cy="2.12947" rx="3.06643" ry="2.12947" transform="matrix(0.866025 0.5 -0.866025 0.5 559.871 468.358)" fill="#33302F"/>
</g>
<rect x="1.52945" width="187.202" height="189.41" transform="matrix(0.866025 -0.5 0.866025 0.5 252.243 449.296)" fill="#DC987C" stroke="black" stroke-width="1.76606"/>
<rect x="1.52945" width="162.477" height="153.647" transform="matrix(0.866025 -0.5 0.866025 0.5 277.861 451.725)" fill="white" stroke="black" stroke-width="1.76606"/>
<path d="M443.259 449.75C443.259 449.75 447.345 448.117 452.948 439.77C454.93 436.817 455.928 437.402 454.157 430.673C453.889 422.88 463.157 423.262 465.96 423.858C477.193 426.248 462.302 428.427 461.8 434.659C461.298 440.891 461.483 441.38 459.1 444.77C455.876 449.354 452.054 452.151 452.054 452.151L443.255 449.762L443.259 449.75Z" fill="url(#paint26_linear_0_1)"/>
<path d="M397.376 461.127C397.037 466.314 413.856 473.742 414.195 474.994C414.535 476.246 415.036 481.663 418.547 483.588C422.059 485.513 405.216 495.312 405.668 497.788C405.845 498.759 407.335 501.357 412.941 499.772C418.547 498.188 422.398 493.154 422.398 493.154L428.595 486.782C428.595 486.782 431.014 484.415 430.852 483.554C430.675 482.685 429.849 479.687 431.442 478.58C433.035 477.472 440.25 470.888 441.828 470.266C443.407 469.645 458.972 461.629 462.97 462.404C466.983 463.171 473.179 466.851 474.271 467.668C475.363 468.486 482.887 474.772 488.656 472.788C494.424 470.803 492.218 468.409 489.659 466.604C487.099 464.799 475.938 461.868 474.773 459.355C473.607 456.842 475.304 452.984 465.227 450.181C461.778 449.218 458.668 448.166 456.071 447.2C454.289 446.537 451.933 444.087 449.36 442.472C436.303 433.996 428.115 434.38 428.115 434.38C428.115 434.38 397.671 456.8 397.391 461.135L397.376 461.127Z" fill="url(#paint27_linear_0_1)"/>
<path d="M419.498 489.878C416.311 492.127 412.22 497.658 410.572 500.142C411.974 500.27 414.203 499.318 416.031 498.439C417.801 497.587 421.047 494.407 422.522 492.732L429.235 485.96C429.924 485.137 431.124 483.456 430.416 483.319C429.53 483.149 423.481 487.067 419.498 489.878Z" fill="#382E2A"/>
<path d="M443.971 464.958C451.858 460.405 449.751 451.805 439.264 445.75C428.778 439.696 413.883 438.48 405.995 443.033C398.108 447.587 400.215 456.187 410.702 462.241C421.188 468.295 436.083 469.512 443.971 464.958Z" fill="url(#paint28_linear_0_1)"/>
<path fill-rule="evenodd" clip-rule="evenodd" d="M419.151 458.64C417.897 458.447 416.494 458.318 414.998 458.18C412.992 457.996 410.816 457.795 408.603 457.405C408.371 457.364 408.103 457.332 407.809 457.296C407.017 457.199 406.037 457.08 405.075 456.716L423.992 441.024C429.639 442.323 434.048 444.972 434.44 445.725C435.635 447.931 436.181 452.403 436.181 452.897C436.167 454.631 437.966 456.557 441.641 460.49C441.846 460.709 442.057 460.935 442.274 461.168C446.375 465.563 451.524 464.941 452.823 464.345C455.729 463.041 454.622 460.478 453.87 459.447C453.413 458.842 448.146 453.433 447.201 452.564C446.813 452.205 446.393 450.874 445.842 449.127C444.591 445.165 442.663 439.06 438.895 437.275L438.895 437.241C433.363 434.626 424.134 433.782 424.134 433.782L410.966 431.9L409.012 431.525L384.522 445.409L384.613 445.532L384.448 445.451L387.62 449.838C387.62 449.838 390.53 459.083 394.911 462.124C397.732 464.088 407.125 464.427 412.981 464.639C415.458 464.728 417.302 464.795 417.75 464.952C418.348 465.162 420.243 465.768 422.395 466.457L422.395 466.457C425.658 467.501 429.51 468.734 430.319 469.058C431.662 469.594 436.531 470.582 438.803 468.453C439.688 467.635 440.912 464.73 433.3 462.363C432.218 462.026 431.264 461.727 430.408 461.458C425.235 459.832 423.63 459.328 419.136 458.649L419.151 458.64Z" fill="url(#paint29_linear_0_1)"/>
<path d="M436.601 454.437C436.168 453.501 436.134 453.004 436.232 452.776C439.714 449.676 444.986 451.243 447.076 452.393C447.715 453.046 449.068 454.463 449.953 455.247C450.838 456.03 453.494 458.739 454.305 460.144C454.994 461.621 455.264 464.616 450.838 464.787C445.306 465 442.355 461.252 441.765 460.741C441.175 460.23 437.245 455.831 436.601 454.437Z" fill="url(#paint30_linear_0_1)"/>
<path d="M422.29 459.208C420.667 458.958 419.708 458.91 417.569 459.548C412.199 461.559 416.094 463.836 418.086 465.042C419.217 465.411 422.408 466.363 423.766 466.874C425.123 467.385 428.265 468.45 431.88 469.514C434.437 469.912 439.251 470.022 439.546 467.467C439.936 464.097 433.429 462.402 432.544 462.061C431.659 461.72 424.705 459.579 422.29 459.208Z" fill="url(#paint31_linear_0_1)"/>
<path d="M457.329 424.838C462.641 422.198 468.787 424.253 469.89 425.531C470.916 426.721 467.669 427.826 466.329 429.097C464.78 430.162 463.437 431.428 462.641 432.334L460.354 432.547L460.811 429.354L457.993 431.184L457.329 427.734L454.084 430.46C454.231 428.075 454.942 426.216 457.329 424.838Z" fill="url(#paint32_linear_0_1)"/>
<path fill-rule="evenodd" clip-rule="evenodd" d="M405.102 456.695C399.686 451.333 398.727 446.065 404.825 442.545C410.399 439.327 416.162 438.863 424.798 441.235L405.102 456.695Z" fill="url(#paint33_linear_0_1)"/>
<g filter="url(#filter12_f_0_1)">
<path d="M461.374 452.674C465.682 449.914 469.021 450.984 470.152 451.865C472.807 453.398 473.545 454.675 474.504 458.466C475.271 461.498 472.512 462.256 471.037 462.256C469.806 462.256 467.325 458.223 464.632 456.056C462.161 454.067 459.312 453.995 461.374 452.674Z" fill="url(#paint34_linear_0_1)"/>
</g>
<path d="M381.878 423.413C381.878 423.413 378.131 416.701 380.019 414.248C381.908 411.795 385.198 413.439 385.198 413.439C385.198 413.439 389.329 414.632 394.183 418.95C399.036 423.269 394.861 426.139 394.861 426.139L381.878 423.43L381.878 423.413Z" fill="#372E29"/>
<path d="M382.439 423.38C382.439 423.38 379.178 417.528 380.816 415.39C382.483 413.252 385.33 414.674 385.33 414.674C385.33 414.674 388.93 415.713 393.164 419.47C397.384 423.235 393.755 425.739 393.755 425.739L382.439 423.38Z" fill="url(#paint35_linear_0_1)"/>
<path d="M371.979 430.679C371.979 430.679 359.852 428.413 355.293 430.057C350.734 431.701 359.512 435.577 359.512 435.577L361.179 435.977C361.179 435.977 362.05 437.025 362.847 437.366C363.643 437.706 368.291 438.465 368.291 438.465L371.964 430.671L371.979 430.679Z" fill="#372E29"/>
<path d="M371.551 431.233C371.551 431.233 361.002 429.266 357.034 430.688C353.05 432.119 360.707 435.501 360.707 435.501L362.153 435.841C362.153 435.841 362.92 436.761 363.599 437.051C364.277 437.341 368.335 438.013 368.335 438.013L371.536 431.225L371.551 431.233Z" fill="url(#paint36_linear_0_1)"/>
<path d="M374.251 425.603C371.418 427.358 368.94 428.993 368.113 431.344C367.287 433.695 366.461 437.272 367.405 440.066C369.072 444.981 369.102 445.679 369.102 445.679C369.102 445.679 370.489 444.129 370.577 443.414C370.681 442.69 371.315 446.94 376.715 447.332L375.711 445.884C375.711 445.884 384.932 446.829 387.426 446.344L386.614 445.841C386.614 445.841 398.978 444.138 403.743 440.654C406.93 438.32 410.647 436.548 410.515 430.782C410.515 430.782 412.374 431.548 413.037 432.289C413.701 433.03 411.769 428.133 410.869 427.681C410.869 427.681 412.388 428.047 412.595 428.218C412.816 428.38 408.656 423.95 407.992 423.891C407.328 423.831 409.984 423.371 409.984 423.371C409.984 423.371 403.035 421.404 401.751 421.48C400.468 421.557 402.282 420.645 402.282 420.645C402.282 420.645 386.703 420.714 382.675 421.778C378.647 422.843 375.682 424.708 374.207 425.611L374.251 425.603Z" fill="#524748"/>
<path d="M397.974 432.69C398.254 432.528 397.812 432.272 397.532 432.434C397.251 432.596 397.694 432.851 397.974 432.69Z" fill="black"/>
<path d="M388.621 438.806C388.901 438.644 388.458 438.388 388.178 438.55C387.898 438.712 388.34 438.967 388.621 438.806Z" fill="black"/>
<path d="M395.805 432.46C396.086 432.298 395.643 432.042 395.363 432.204C395.083 432.366 395.525 432.621 395.805 432.46Z" fill="black"/>
<path d="M396.336 432.272C397.369 431.591 398.092 430.765 398.83 429.964C401.013 427.545 402.769 424.998 404.879 422.554L404.908 422.571C403.934 424.308 402.607 425.978 401.205 427.605C400.143 428.831 399.066 430.049 397.797 431.208C397.369 431.591 396.912 431.974 396.366 432.307L396.336 432.289L396.336 432.272Z" fill="black"/>
<path d="M398.004 432.843C399.317 432.579 400.438 432.085 401.5 431.591C403.654 430.586 405.543 429.41 407.431 428.235C408.361 427.647 409.334 427.068 410.19 426.438L410.22 426.455C408.833 427.852 406.826 429.01 404.82 430.117C403.285 430.935 401.707 431.744 399.922 432.366C399.332 432.57 398.697 432.749 398.019 432.869L397.989 432.852L398.004 432.843Z" fill="black"/>
<path d="M398.402 431.659C399.685 431.122 400.718 430.407 401.81 429.742C402.887 429.07 403.934 428.38 404.967 427.681C406.826 426.386 408.877 425.032 410.706 423.72C410.809 423.627 410.942 423.533 411.016 423.439L411.046 423.456C411.031 423.567 410.898 423.661 410.809 423.763C409.231 425.236 407.224 426.531 405.218 427.809C403.625 428.831 401.987 429.845 400.246 430.799C399.656 431.105 399.081 431.437 398.417 431.684L398.387 431.667L398.402 431.659Z" fill="black"/>
<path d="M378.765 432.162C378.765 432.162 384.681 432.664 390.155 436.029C390.155 436.029 394.61 434.001 394.02 433.524C391.217 432.042 385.109 426.676 384.991 425.705C384.888 424.742 377.26 425.296 377.26 425.296L373.174 428.916L378.765 432.145L378.765 432.162Z" fill="url(#paint37_linear_0_1)"/>
<path d="M369.294 429.811C368.762 431.003 377.083 432.264 379.695 432.392C378.691 431.421 373.941 429.223 375.047 428.789C375.667 428.55 379.886 428.789 380.742 428.857C380.934 427.758 379.65 426.387 380.595 426.335C381.716 426.267 385.965 428.243 387.086 428.141C386.806 426.446 384.312 423.235 383.885 421.54C383.427 421.617 383.029 421.693 382.719 421.77C378.249 422.954 375.726 424.7 374.251 425.603C372.2 426.872 370.341 428.065 369.161 429.53C369.279 429.598 369.353 429.691 369.308 429.819L369.294 429.811Z" fill="url(#paint38_linear_0_1)"/>
<path d="M386.953 435.56C386.953 435.56 383.693 438.277 378.588 437.017C373.483 435.756 379.09 433.354 379.09 433.354C379.09 433.354 381.229 432.034 384.637 433.371C388.045 434.708 386.953 435.56 386.953 435.56Z" fill="#FFD75E"/>
<path d="M393.061 431.438C393.061 431.438 397.782 429.615 395.599 426.668C393.415 423.72 389.255 426.957 389.255 426.957C389.255 426.957 386.968 428.192 389.284 430.16C391.601 432.128 393.076 431.429 393.076 431.429L393.061 431.438Z" fill="#FFD75E"/>
<path d="M394.935 435.875L394.743 433.976C394.743 433.72 394.433 433.456 394.02 433.525C393.135 433.661 392.338 433.712 391.01 434.513C389.683 435.313 390.037 435.501 389.801 435.841C389.565 436.182 390.066 436.404 390.553 436.395L394.197 436.335C394.595 436.327 395.023 436.097 394.964 435.858L394.935 435.875Z" fill="black"/>
<path d="M380.491 434.214C380.226 434.402 380.123 434.649 380.182 434.887C380.255 435.219 380.491 435.645 381.081 435.935C381.996 436.395 382.985 436.676 384.681 436.446C385.994 436.267 386.57 435.679 386.599 435.339C386.629 434.998 386.673 434.342 383.944 433.754C382.085 433.363 381.008 433.848 380.506 434.206L380.491 434.214Z" fill="black"/>
<path d="M390.096 427.749C390.096 427.749 389.461 428.337 389.683 429.214C389.845 429.887 391.069 430.935 392.087 431.08C392.633 431.156 393.592 431.335 394.404 430.339C395.127 429.461 394.241 428.132 393.445 427.69C392.781 427.323 391.084 426.872 390.111 427.741L390.096 427.749Z" fill="black"/>
<path d="M387.765 439.777C389.55 439.955 391.645 440.058 393.194 439.436C394.773 438.814 395.127 437.553 394.832 436.514L394.817 436.437L394.964 436.437C396.115 436.472 397.295 436.352 398.358 436.131C400.644 435.679 401.839 434.495 401.972 433.141C402.061 432.477 401.943 431.778 401.81 431.122L401.884 431.114C402.341 431.923 402.636 432.809 402.459 433.678C402.194 435.466 399.73 436.531 396.75 436.599C396.13 436.616 395.554 436.608 394.95 436.565L395.082 436.489C395.141 437.051 395.171 437.613 395.009 438.184C394.669 439.521 392.914 440.194 390.642 440.16C389.638 440.143 388.679 440.032 387.779 439.802L387.809 439.768L387.765 439.777Z" fill="black"/>
<g filter="url(#filter13_f_0_1)">
<path d="M392.434 434.946C392.809 434.729 393.001 434.489 392.862 434.409C392.724 434.329 392.307 434.44 391.933 434.656C391.558 434.873 391.366 435.113 391.505 435.193C391.643 435.273 392.059 435.162 392.434 434.946Z" fill="#CECECE"/>
</g>
<g filter="url(#filter14_f_0_1)">
<path d="M377.338 441.843C376.557 440.556 375.187 439.661 374.277 439.845C373.368 440.029 373.264 441.222 374.045 442.509C374.827 443.796 376.197 444.69 377.106 444.506C378.016 444.322 378.119 443.13 377.338 441.843Z" fill="white"/>
</g>
<g filter="url(#filter15_f_0_1)">
<path d="M403.146 425.785C400.968 425.258 398.9 425.247 398.527 425.76C398.155 426.273 399.619 427.116 401.798 427.643C403.976 428.17 406.045 428.182 406.417 427.669C406.789 427.155 405.325 426.312 403.146 425.785Z" fill="white"/>
</g>
<path d="M366.446 442.409C371.477 441.548 377.659 440.467 382.646 439.564C384.431 439.249 386.275 438.985 388.016 438.593L388.045 438.61C387.234 438.891 386.334 439.07 385.449 439.257C382.793 439.819 380.078 440.279 377.364 440.705C374.664 441.122 369.102 442.068 366.461 442.4L366.446 442.409Z" fill="black"/>
<path d="M374.944 445.1C378.647 443.575 382.704 441.846 386.319 440.236C387.411 439.759 388.532 439.299 389.535 438.754C389.668 438.678 389.816 438.592 389.904 438.49L389.934 438.507C389.579 438.916 388.945 439.214 388.384 439.538C386.644 440.458 384.711 441.267 382.778 442.042C381.495 442.562 380.196 443.09 378.898 443.601C377.6 444.112 376.287 444.615 374.974 445.117L374.944 445.1Z" fill="black"/>
<g filter="url(#filter16_f_0_1)">
<ellipse cx="3.06643" cy="2.12947" rx="3.06643" ry="2.12947" transform="matrix(0.866025 -0.5 0.866025 0.5 387.123 438.796)" fill="#33302F"/>
</g>
<g filter="url(#filter17_f_0_1)">
<ellipse cx="3.06643" cy="2.12947" rx="3.06643" ry="2.12947" transform="matrix(0.866025 -0.5 0.866025 0.5 394.204 434.708)" fill="#33302F"/>
</g>
<path d="M256.233 464.426L252.921 448.311L418.268 542.795L580.746 448.311V460.673L460.212 531.186L533.504 575.909L698.851 480.983V493.787L533.504 590.699L448.733 540.367L446.525 539.193L418.268 556.923L256.233 464.426Z" fill="#DC987C"/>
<path d="M709.226 399.965L633.507 443.233L620.261 435.728L706.357 385.616L709.226 399.965Z" fill="#DC987C"/>
<path d="M418.268 556.923L256.233 464.426L252.921 448.311L418.268 542.795M418.268 556.923V542.795M418.268 556.923L446.525 539.193M418.268 542.795L580.746 448.311V460.673L460.212 531.186M533.504 590.699L448.733 540.367L446.525 539.193M533.504 590.699V575.909M533.504 590.699L698.851 493.787V480.983L533.504 575.909M533.504 575.909L460.212 531.186M460.212 531.186L446.525 539.193M633.507 443.233L709.226 399.965L706.357 385.616L620.261 435.728L633.507 443.233Z" stroke="black" stroke-width="1.32454"/>
<path d="M371.288 379.444C371.288 379.444 392.23 383.253 452.996 356.431C474.491 346.942 474.446 353.032 504.387 312.367C544.454 270.674 570.524 300.748 575.887 312.367C597.375 358.929 540.835 325.258 506.621 356.431C472.407 387.604 470.403 390.731 445.399 401.295C411.581 415.582 385.332 418.682 385.332 418.682L371.213 379.492L371.288 379.444Z" fill="url(#paint39_linear_0_1)"/>
<path d="M172.626 300.15C144.383 326.337 156.36 416.248 150.818 423.845C145.277 431.442 118.375 461.383 118.911 482.118C119.448 502.853 17.0237 503.247 5.4049 517.6C0.846763 523.23 -8.26951 541.374 17.0237 550.043C42.3169 558.713 80.3907 543.966 80.3907 543.966L132.586 529.308C132.586 529.308 152.338 524.214 156.36 519.209C160.382 514.114 173.609 495.882 184.245 494.899C194.88 493.915 251.276 481.224 259.32 482.743C267.364 484.263 356.56 489.357 364.604 505.534C372.737 521.711 372.201 559.785 371.218 567.382C370.234 574.979 360.046 630.749 387.931 637.81C415.816 644.87 421.696 625.626 423.413 608.405C425.129 591.184 406.7 541.999 416.352 525.286C426.005 508.573 451.387 493.469 435.568 448.245C430.175 432.741 426.274 417.805 423.476 404.87C421.556 395.993 427.272 376.005 427.953 359.735C432.868 275.723 406.056 252.932 406.056 252.932C406.056 252.932 196.221 278.342 172.626 300.239V300.15Z" fill="url(#paint40_linear_0_1)"/>
<path d="M88.792 517.996C67.342 520.141 25.9315 536.765 7.90747 544.808C11.4825 549.724 23.2309 551.483 33.3794 552.405C43.2107 553.299 69.7253 546.447 82.9826 542.127L138.842 526.933C145.247 524.699 157.7 519.515 156.27 516.655C154.483 513.08 115.605 515.315 88.792 517.996Z" fill="#382E2A"/>
<path d="M293.658 461.383C341.439 461.383 380.173 409.884 380.173 346.357C380.173 282.83 341.439 231.331 293.658 231.331C245.877 231.331 207.143 282.83 207.143 346.357C207.143 409.884 245.877 461.383 293.658 461.383Z" fill="url(#paint41_linear_0_1)"/>
<path fill-rule="evenodd" clip-rule="evenodd" d="M216.152 178.75L215.784 179.671L215.705 178.751L202.298 211.373C202.298 211.373 162.609 268.69 159.928 297.916C158.169 316.759 184.839 346.992 201.468 365.843C208.5 373.814 213.737 379.75 214.268 381.928C214.978 384.841 217.538 393.766 220.443 403.897C224.848 419.259 230.049 437.395 230.803 441.542C232.054 448.424 241.617 468.354 259.671 464.064C266.642 462.456 285.59 450.926 274.954 415.444C273.443 410.405 272.126 405.943 270.943 401.938C263.799 377.743 261.583 370.237 251.538 353.06H251.627C248.839 348.249 245.269 343.324 241.459 338.068C236.351 331.022 230.813 323.383 226.155 314.629C225.668 313.714 225.028 312.731 224.326 311.652C222.433 308.747 220.09 305.149 219.086 300.327L358.707 275.304C369.003 299.22 368.456 326.472 365.694 331.61C357.74 346.804 335.933 371.918 333.341 374.51C324.198 383.568 319.546 399.12 310.043 430.887C309.513 432.659 308.967 434.483 308.405 436.358C297.769 471.84 316.627 484.174 323.688 484.978C339.329 486.944 349.428 470.142 352.556 462.456C354.344 457.897 366.767 413.567 368.465 406.149C369.176 403.086 374.884 394.834 382.378 383.998C399.376 359.422 425.567 321.554 423.52 300.776L423.699 300.597C420.66 270.12 397.136 237.738 397.136 237.738L367.124 187.992L363.174 180.091L216.152 178.75Z" fill="url(#paint42_linear_0_1)"/>
<path d="M326.53 383.867C330.135 377.64 332.637 374.929 334.127 374.035C360.939 368.315 368.685 392.506 368.983 404.87C367.494 410.232 364.157 421.762 362.727 428.554C361.297 435.347 355.13 457.601 350.214 467.433C344.554 477.264 329.658 493.798 315.358 481.286C297.483 465.645 308.208 437.045 309.102 432.576C309.995 428.107 321.167 393.129 326.53 383.867Z" fill="url(#paint43_linear_0_1)"/>
<path d="M258.158 365.545C254.553 359.318 251.902 356.16 242.07 353.032C215.258 347.312 215.109 371.056 214.811 383.42C216.301 388.782 220.978 403.44 222.408 410.232C223.838 417.025 227.77 432.129 233.133 448.663C238.793 458.495 252.796 473.656 267.096 461.143C285.955 444.642 275.139 416.042 274.246 411.573C273.352 407.104 263.52 374.807 258.158 365.545Z" fill="url(#paint44_linear_0_1)"/>
<path d="M544.606 291.363C574.546 293.597 582.38 323.001 579.015 333.043C575.881 342.396 560.246 338.357 549.521 340.966C539.243 341.86 528.534 344.434 521.368 346.776L513.324 340.966L531.457 325.604L513.324 326.666L529.412 306.557L505.28 311.026C518.24 298.96 530.143 291.363 544.606 291.363Z" fill="url(#paint45_linear_0_1)"/>
<path fill-rule="evenodd" clip-rule="evenodd" d="M219.28 300.301C231.005 255.765 255.736 225.226 292.673 225.226C326.441 225.226 346.33 240.251 360.046 278.851L219.28 300.301Z" fill="url(#paint46_linear_0_1)"/>
<g filter="url(#filter18_f_0_1)">
<path d="M405.063 449.649C432.59 448.219 437.089 463.949 435.897 471.992C435.897 488.08 431.428 497.017 414.447 519.808C400.862 538.041 388.528 533.661 384.059 529.193C380.331 525.464 393.978 496.788 397.189 477.264C400.137 459.345 391.889 450.333 405.063 449.649Z" fill="url(#paint47_linear_0_1)"/>
</g>
<path d="M323.538 55.3513C323.538 55.3513 347.401 8.78686 365.991 1.63684C384.581 -5.51318 385.922 13.0769 385.922 13.0769C385.922 13.0769 392.178 31.8457 384.224 69.2045C376.269 106.563 348.563 108.976 348.563 108.976L323.449 55.4407L323.538 55.3513Z" fill="#372E29"/>
<path d="M325.415 56.8708C325.415 56.8708 346.239 16.2944 362.416 10.0382C378.683 3.87129 379.845 19.9588 379.845 19.9588C379.845 19.9588 385.296 36.3145 378.415 68.8471C371.443 101.38 347.312 103.525 347.312 103.525L325.415 56.8708Z" fill="url(#paint48_linear_0_1)"/>
<path d="M255.434 63.4846C255.434 63.4846 230.588 14.8644 208.155 9.68069C185.722 4.49693 191.978 51.4189 191.978 51.4189L194.927 58.5689C194.927 58.5689 192.067 66.7021 192.693 70.9027C193.318 75.1033 203.418 93.1571 203.418 93.1571L255.434 63.3952V63.4846Z" fill="#372E29"/>
<path d="M251.233 65.0934C251.233 65.0934 229.605 22.8189 210.121 18.2608C190.548 13.7026 196 54.6365 196 54.6365L198.591 60.8034C198.591 60.8034 196.089 67.9534 196.625 71.5284C197.161 75.1034 205.92 90.9228 205.92 90.9228L251.233 65.004V65.0934Z" fill="url(#paint49_linear_0_1)"/>
<path d="M288.95 43.7326C271.164 44.3582 255.077 45.4307 240.241 55.262C225.404 65.0933 204.133 81.3596 192.335 98.8771C171.6 129.712 168.025 133.465 168.025 133.465C168.025 133.465 180.359 129.533 184.381 126.047C188.492 122.562 168.115 146.782 182.415 165.194L186.973 154.558C186.973 154.558 209.942 187.448 220.042 192.453L220.221 187.359C220.221 187.359 266.606 215.869 299.318 212.026C321.214 209.434 341.771 211.4 371.622 180.745C371.622 180.745 373.231 190.397 371.354 196.296C369.477 202.195 389.318 170.645 388.961 165.551C388.961 165.551 391.642 172.075 391.374 173.595C391.195 175.114 401.831 139.275 400.133 136.951C398.435 134.627 408.892 140.258 408.892 140.258C408.892 140.258 398.167 108.887 393.877 105.401C389.587 101.916 399.865 102.631 399.865 102.631C399.865 102.631 352.317 55.7982 334.531 49.1845C316.746 42.5707 297.977 43.3751 288.771 43.6432L288.95 43.7326Z" fill="#524748"/>
<path d="M323.627 152.77C325.325 152.77 325.325 150.089 323.627 150.089C321.929 150.089 321.929 152.77 323.627 152.77Z" fill="black"/>
<path d="M263.21 156.524C264.908 156.524 264.908 153.843 263.21 153.843C261.512 153.843 261.512 156.524 263.21 156.524Z" fill="black"/>
<path d="M318.265 144.995C319.963 144.995 319.963 142.313 318.265 142.313C316.567 142.313 316.567 144.995 318.265 144.995Z" fill="black"/>
<path d="M320.857 145.62C327.56 145.173 334.084 143.028 340.52 141.062C359.825 134.985 378.504 126.941 397.72 120.506V120.685C385.654 126.851 372.873 131.588 360.093 135.878C350.44 139.096 340.788 142.224 330.867 144.458C327.56 145.173 324.164 145.799 320.768 145.888V145.71L320.857 145.62Z" fill="black"/>
<path d="M322.913 153.664C328.275 156.256 334.263 157.06 340.073 157.686C351.87 158.937 363.757 158.49 375.644 158.043C381.543 157.775 387.531 157.686 393.43 156.971V157.15C381.9 160.278 369.745 160.278 357.858 160.01C348.921 159.652 339.894 159.116 331.225 156.971C328.364 156.256 325.504 155.273 322.823 153.843V153.664H322.913Z" fill="black"/>
<path d="M330.331 148.659C337.034 149.732 343.916 149.106 350.708 148.927C357.501 148.659 364.293 148.212 371.086 147.676C383.509 146.514 396.826 145.621 409.249 144.28C410.054 144.101 410.947 144.012 411.662 143.744V143.922C411.037 144.459 410.143 144.548 409.339 144.816C396.826 147.766 383.956 148.481 371.175 149.106C360.987 149.642 350.708 150 340.43 149.732C337.034 149.553 333.548 149.553 330.241 148.838V148.659H330.331Z" fill="black"/>
<path d="M268.215 91.8166C268.215 91.8166 283.498 112.373 282.425 146.604C282.425 146.604 306.557 149.464 307.272 145.174C306.557 128.907 316.209 82.2534 320.946 76.8015C325.683 71.439 299.675 51.2402 299.675 51.2402L268.304 57.854V91.7272L268.215 91.8166Z" fill="url(#paint50_linear_0_1)"/>
<path d="M251.859 50.7931C243.994 55.4406 262.584 87.2582 269.824 95.8382C271.879 87.705 269.019 61.7862 274.65 62.8587C277.778 63.4844 289.308 77.5163 291.542 80.4656C297.888 75.2819 301.194 64.1994 304.323 66.7912C308.076 69.83 310.579 93.0676 314.511 95.9276C322.555 86.1857 331.85 61.7862 339.447 51.5975C337.66 50.6143 336.051 49.81 334.71 49.2737C314.958 41.9449 298.156 43.4643 288.95 43.7324C276.08 44.1793 264.193 44.8049 252.932 48.9162C252.932 49.6312 252.664 50.3462 251.859 50.8825V50.7931Z" fill="url(#paint51_linear_0_1)"/>
<path d="M275.186 134.448C275.186 134.448 251.055 138.828 242.207 116.752C233.359 94.6764 262.942 99.0558 262.942 99.0558C262.942 99.0558 276.348 98.6089 279.655 115.948C282.962 133.286 275.186 134.448 275.186 134.448Z" fill="#FFD75E"/>
<path d="M315.316 131.32C315.316 131.32 339.179 136.057 348.027 113.981C356.875 91.9056 327.292 96.285 327.292 96.285C327.292 96.285 313.886 95.8381 310.579 113.177C307.272 130.516 315.405 131.32 315.405 131.32H315.316Z" fill="#FFD75E"/>
<path d="M297.709 160.278L307.093 149.732C308.434 148.391 308.881 146.067 307.272 145.173C303.876 143.207 301.195 141.062 292.972 141.241C284.749 141.42 284.839 143.475 282.336 144.548C279.834 145.62 280.191 148.302 281.711 149.732L293.061 160.457C294.313 161.618 296.815 161.708 297.888 160.278H297.709Z" fill="black"/>
<path d="M262.673 107.814C260.886 107.993 259.277 108.976 258.205 110.406C256.685 112.373 255.166 115.322 255.434 118.629C255.792 123.813 257.311 128.281 263.657 132.214C268.572 135.253 273.398 133.912 275.275 132.214C277.152 130.516 280.727 127.209 275.543 115.858C271.968 108.172 266.159 107.457 262.763 107.814H262.673Z" fill="black"/>
<path d="M325.683 102.988C325.683 102.988 320.678 104.15 316.746 109.423C313.707 113.445 311.919 122.651 314.243 126.494C315.494 128.55 317.461 132.393 325.147 129.622C331.94 127.209 336.23 117.557 336.14 112.82C336.051 108.887 333.28 101.38 325.773 102.988H325.683Z" fill="black"/>
<path d="M255.523 159.027C259.992 165.372 265.802 172.254 273.756 173.684C281.8 175.203 289.486 169.662 294.044 163.317L294.402 162.87L294.849 163.317C298.155 166.981 302.356 169.93 306.735 171.986C316.03 176.544 325.862 173.952 333.369 167.249C337.123 164.032 340.43 160.01 343.469 156.167L343.737 156.345C340.877 161.976 337.123 167.517 332.029 171.539C321.84 180.119 308.791 178.242 299.407 169.573C297.44 167.785 295.742 165.998 294.134 163.942H294.938C292.167 167.07 289.307 170.109 285.822 172.612C277.778 178.6 268.93 176.812 262.227 169.752C259.277 166.623 256.953 163.138 255.434 159.205L255.702 159.116L255.523 159.027Z" fill="black"/>
<g filter="url(#filter19_f_0_1)">
<path d="M295.009 147.827C297.28 147.827 299.12 147.146 299.12 146.307C299.12 145.468 297.28 144.788 295.009 144.788C292.739 144.788 290.898 145.468 290.898 146.307C290.898 147.146 292.739 147.827 295.009 147.827Z" fill="#CECECE"/>
</g>
<g filter="url(#filter20_f_0_1)">
<path d="M213.102 138.283C217.488 129.165 218.029 120.322 214.31 118.533C210.591 116.744 204.02 122.686 199.634 131.805C195.247 140.924 194.706 149.766 198.425 151.555C202.145 153.344 208.715 147.402 213.102 138.283Z" fill="white"/>
</g>
<g filter="url(#filter21_f_0_1)">
<path d="M375.518 132.213C371.684 122.849 365.48 116.525 361.66 118.088C357.841 119.652 357.853 128.511 361.686 137.875C365.52 147.24 371.724 153.564 375.544 152C379.363 150.437 379.351 141.578 375.518 132.213Z" fill="white"/>
</g>
<path d="M177.142 108.261C196.894 118.986 221.293 132.035 241.134 142.403C248.195 146.157 255.166 150.357 262.495 153.575V153.753C258.562 152.77 254.898 150.983 251.234 149.285C240.241 144.19 229.605 138.381 219.148 132.393C208.78 126.405 186.973 114.518 177.231 108.261H177.142Z" fill="black"/>
<path d="M188.76 148.123C207.976 151.34 229.337 154.558 248.731 157.06C254.541 157.865 260.35 158.848 266.249 159.027C267.053 159.027 267.947 159.027 268.751 158.758V158.937C265.534 160.01 262.048 159.652 258.652 159.652C248.553 159.205 238.453 157.597 228.532 155.809C221.919 154.647 215.216 153.485 208.602 152.234C201.988 150.983 195.374 149.642 188.76 148.302V148.123Z" fill="black"/>
<g filter="url(#filter22_f_0_1)">
<ellipse cx="274.81" cy="163.11" rx="16.0875" ry="11.1719" fill="#33302F"/>
</g>
<g filter="url(#filter23_f_0_1)">
<ellipse cx="317.711" cy="163.11" rx="16.0875" ry="11.1719" fill="#33302F"/>
</g>
<defs>
<filter id="filter0_f_0_1" x="586.117" y="385.621" width="17.3786" height="14.7609" filterUnits="userSpaceOnUse" color-interpolation-filters="sRGB">
<feFlood flood-opacity="0" result="BackgroundImageFix"/>
<feBlend mode="normal" in="SourceGraphic" in2="BackgroundImageFix" result="shape"/>
<feGaussianBlur stdDeviation="0.851787" result="effect1_foregroundBlur_0_1"/>
</filter>
<filter id="filter1_f_0_1" x="517.934" y="370.123" width="2.81012" height="2.19855" filterUnits="userSpaceOnUse" color-interpolation-filters="sRGB">
<feFlood flood-opacity="0" result="BackgroundImageFix"/>
<feBlend mode="normal" in="SourceGraphic" in2="BackgroundImageFix" result="shape"/>
<feGaussianBlur stdDeviation="0.340715" result="effect1_foregroundBlur_0_1"/>
</filter>
<filter id="filter2_f_0_1" x="493.863" y="369.429" width="17.9697" height="18.3376" filterUnits="userSpaceOnUse" color-interpolation-filters="sRGB">
<feFlood flood-opacity="0" result="BackgroundImageFix"/>
<feBlend mode="normal" in="SourceGraphic" in2="BackgroundImageFix" result="shape"/>
<feGaussianBlur stdDeviation="3.40715" result="effect1_foregroundBlur_0_1"/>
</filter>
<filter id="filter3_f_0_1" x="518.811" y="354.989" width="21.6342" height="16.2922" filterUnits="userSpaceOnUse" color-interpolation-filters="sRGB">
<feFlood flood-opacity="0" result="BackgroundImageFix"/>
<feBlend mode="normal" in="SourceGraphic" in2="BackgroundImageFix" result="shape"/>
<feGaussianBlur stdDeviation="3.40715" result="effect1_foregroundBlur_0_1"/>
</filter>
<filter id="filter4_f_0_1" x="513.842" y="371.179" width="9.87394" height="7.14079" filterUnits="userSpaceOnUse" color-interpolation-filters="sRGB">
<feFlood flood-opacity="0" result="BackgroundImageFix"/>
<feBlend mode="normal" in="SourceGraphic" in2="BackgroundImageFix" result="shape"/>
<feGaussianBlur stdDeviation="0.851787" result="effect1_foregroundBlur_0_1"/>
</filter>
<filter id="filter5_f_0_1" x="520.923" y="367.09" width="9.87394" height="7.14079" filterUnits="userSpaceOnUse" color-interpolation-filters="sRGB">
<feFlood flood-opacity="0" result="BackgroundImageFix"/>
<feBlend mode="normal" in="SourceGraphic" in2="BackgroundImageFix" result="shape"/>
<feGaussianBlur stdDeviation="0.851787" result="effect1_foregroundBlur_0_1"/>
</filter>
<filter id="filter6_f_0_1" x="510.451" y="505.025" width="23.0727" height="11.4736" filterUnits="userSpaceOnUse" color-interpolation-filters="sRGB">
<feFlood flood-opacity="0" result="BackgroundImageFix"/>
<feBlend mode="normal" in="SourceGraphic" in2="BackgroundImageFix" result="shape"/>
<feGaussianBlur stdDeviation="0.851787" result="effect1_foregroundBlur_0_1"/>
</filter>
<filter id="filter7_f_0_1" x="558.304" y="466.092" width="2.81037" height="2.19831" filterUnits="userSpaceOnUse" color-interpolation-filters="sRGB">
<feFlood flood-opacity="0" result="BackgroundImageFix"/>
<feBlend mode="normal" in="SourceGraphic" in2="BackgroundImageFix" result="shape"/>
<feGaussianBlur stdDeviation="0.340715" result="effect1_foregroundBlur_0_1"/>
</filter>
<filter id="filter8_f_0_1" x="536.043" y="449.602" width="21.7848" height="16.1349" filterUnits="userSpaceOnUse" color-interpolation-filters="sRGB">
<feFlood flood-opacity="0" result="BackgroundImageFix"/>
<feBlend mode="normal" in="SourceGraphic" in2="BackgroundImageFix" result="shape"/>
<feGaussianBlur stdDeviation="3.40715" result="effect1_foregroundBlur_0_1"/>
</filter>
<filter id="filter9_f_0_1" x="564.595" y="464.006" width="18.2421" height="18.2504" filterUnits="userSpaceOnUse" color-interpolation-filters="sRGB">
<feFlood flood-opacity="0" result="BackgroundImageFix"/>
<feBlend mode="normal" in="SourceGraphic" in2="BackgroundImageFix" result="shape"/>
<feGaussianBlur stdDeviation="3.40715" result="effect1_foregroundBlur_0_1"/>
</filter>
<filter id="filter10_f_0_1" x="548.664" y="463.297" width="9.87419" height="7.14079" filterUnits="userSpaceOnUse" color-interpolation-filters="sRGB">
<feFlood flood-opacity="0" result="BackgroundImageFix"/>
<feBlend mode="normal" in="SourceGraphic" in2="BackgroundImageFix" result="shape"/>
<feGaussianBlur stdDeviation="0.851787" result="effect1_foregroundBlur_0_1"/>
</filter>
<filter id="filter11_f_0_1" x="555.746" y="467.386" width="9.87419" height="7.14079" filterUnits="userSpaceOnUse" color-interpolation-filters="sRGB">
<feFlood flood-opacity="0" result="BackgroundImageFix"/>
<feBlend mode="normal" in="SourceGraphic" in2="BackgroundImageFix" result="shape"/>
<feGaussianBlur stdDeviation="0.851787" result="effect1_foregroundBlur_0_1"/>
</filter>
<filter id="filter12_f_0_1" x="458.961" y="449.199" width="17.3786" height="14.7609" filterUnits="userSpaceOnUse" color-interpolation-filters="sRGB">
<feFlood flood-opacity="0" result="BackgroundImageFix"/>
<feBlend mode="normal" in="SourceGraphic" in2="BackgroundImageFix" result="shape"/>
<feGaussianBlur stdDeviation="0.851787" result="effect1_foregroundBlur_0_1"/>
</filter>
<filter id="filter13_f_0_1" x="390.778" y="433.702" width="2.81012" height="2.19855" filterUnits="userSpaceOnUse" color-interpolation-filters="sRGB">
<feFlood flood-opacity="0" result="BackgroundImageFix"/>
<feBlend mode="normal" in="SourceGraphic" in2="BackgroundImageFix" result="shape"/>
<feGaussianBlur stdDeviation="0.340715" result="effect1_foregroundBlur_0_1"/>
</filter>
<filter id="filter14_f_0_1" x="366.707" y="433.007" width="17.9697" height="18.3376" filterUnits="userSpaceOnUse" color-interpolation-filters="sRGB">
<feFlood flood-opacity="0" result="BackgroundImageFix"/>
<feBlend mode="normal" in="SourceGraphic" in2="BackgroundImageFix" result="shape"/>
<feGaussianBlur stdDeviation="3.40715" result="effect1_foregroundBlur_0_1"/>
</filter>
<filter id="filter15_f_0_1" x="391.655" y="418.568" width="21.6342" height="16.2922" filterUnits="userSpaceOnUse" color-interpolation-filters="sRGB">
<feFlood flood-opacity="0" result="BackgroundImageFix"/>
<feBlend mode="normal" in="SourceGraphic" in2="BackgroundImageFix" result="shape"/>
<feGaussianBlur stdDeviation="3.40715" result="effect1_foregroundBlur_0_1"/>
</filter>
<filter id="filter16_f_0_1" x="386.686" y="434.757" width="9.87394" height="7.14079" filterUnits="userSpaceOnUse" color-interpolation-filters="sRGB">
<feFlood flood-opacity="0" result="BackgroundImageFix"/>
<feBlend mode="normal" in="SourceGraphic" in2="BackgroundImageFix" result="shape"/>
<feGaussianBlur stdDeviation="0.851787" result="effect1_foregroundBlur_0_1"/>
</filter>
<filter id="filter17_f_0_1" x="393.767" y="430.669" width="9.87394" height="7.14079" filterUnits="userSpaceOnUse" color-interpolation-filters="sRGB">
<feFlood flood-opacity="0" result="BackgroundImageFix"/>
<feBlend mode="normal" in="SourceGraphic" in2="BackgroundImageFix" result="shape"/>
<feGaussianBlur stdDeviation="0.851787" result="effect1_foregroundBlur_0_1"/>
</filter>
<filter id="filter18_f_0_1" x="374.482" y="440.62" width="70.5232" height="101.439" filterUnits="userSpaceOnUse" color-interpolation-filters="sRGB">
<feFlood flood-opacity="0" result="BackgroundImageFix"/>
<feBlend mode="normal" in="SourceGraphic" in2="BackgroundImageFix" result="shape"/>
<feGaussianBlur stdDeviation="4.46876" result="effect1_foregroundBlur_0_1"/>
</filter>
<filter id="filter19_f_0_1" x="287.323" y="141.213" width="15.3724" height="10.1888" filterUnits="userSpaceOnUse" color-interpolation-filters="sRGB">
<feFlood flood-opacity="0" result="BackgroundImageFix"/>
<feBlend mode="normal" in="SourceGraphic" in2="BackgroundImageFix" result="shape"/>
<feGaussianBlur stdDeviation="1.7875" result="effect1_foregroundBlur_0_1"/>
</filter>
<filter id="filter20_f_0_1" x="160.205" y="82.4652" width="92.3261" height="105.158" filterUnits="userSpaceOnUse" color-interpolation-filters="sRGB">
<feFlood flood-opacity="0" result="BackgroundImageFix"/>
<feBlend mode="normal" in="SourceGraphic" in2="BackgroundImageFix" result="shape"/>
<feGaussianBlur stdDeviation="17.875" result="effect1_foregroundBlur_0_1"/>
</filter>
<filter id="filter21_f_0_1" x="323.053" y="82.1007" width="91.0973" height="105.887" filterUnits="userSpaceOnUse" color-interpolation-filters="sRGB">
<feFlood flood-opacity="0" result="BackgroundImageFix"/>
<feBlend mode="normal" in="SourceGraphic" in2="BackgroundImageFix" result="shape"/>
<feGaussianBlur stdDeviation="17.875" result="effect1_foregroundBlur_0_1"/>
</filter>
<filter id="filter22_f_0_1" x="249.785" y="143" width="50.0501" height="40.2188" filterUnits="userSpaceOnUse" color-interpolation-filters="sRGB">
<feFlood flood-opacity="0" result="BackgroundImageFix"/>
<feBlend mode="normal" in="SourceGraphic" in2="BackgroundImageFix" result="shape"/>
<feGaussianBlur stdDeviation="4.46876" result="effect1_foregroundBlur_0_1"/>
</filter>
<filter id="filter23_f_0_1" x="292.686" y="143" width="50.0501" height="40.2188" filterUnits="userSpaceOnUse" color-interpolation-filters="sRGB">
<feFlood flood-opacity="0" result="BackgroundImageFix"/>
<feBlend mode="normal" in="SourceGraphic" in2="BackgroundImageFix" result="shape"/>
<feGaussianBlur stdDeviation="4.46876" result="effect1_foregroundBlur_0_1"/>
</filter>
<linearGradient id="paint0_linear_0_1" x1="583.254" y1="382.584" x2="587.091" y2="367.015" gradientUnits="userSpaceOnUse">
<stop stop-color="#382E2A"/>
<stop offset="1" stop-color="#8E8885"/>
</linearGradient>
<linearGradient id="paint1_linear_0_1" x1="530.973" y1="411.513" x2="555.406" y2="365.513" gradientUnits="userSpaceOnUse">
<stop stop-color="#3F3536"/>
<stop offset="0.271208" stop-color="#615455"/>
<stop offset="0.507316" stop-color="#695D57"/>
<stop offset="0.768809" stop-color="#675758"/>
<stop offset="1" stop-color="#382E2A"/>
</linearGradient>
<linearGradient id="paint2_linear_0_1" x1="548.141" y1="390.335" x2="564.66" y2="415.241" gradientUnits="userSpaceOnUse">
<stop stop-color="#BDB1AD"/>
<stop offset="1" stop-color="#4F4441"/>
</linearGradient>
<linearGradient id="paint3_linear_0_1" x1="521.806" y1="400.684" x2="542.785" y2="368.463" gradientUnits="userSpaceOnUse">
<stop offset="0.0692049" stop-color="#3F3536"/>
<stop offset="0.288204" stop-color="#655856"/>
<stop offset="0.689746" stop-color="#665A57"/>
<stop offset="1" stop-color="#3A2F2C"/>
</linearGradient>
<linearGradient id="paint4_linear_0_1" x1="579.027" y1="401.549" x2="575.859" y2="385.36" gradientUnits="userSpaceOnUse">
<stop stop-color="#665657"/>
<stop offset="0.306906" stop-color="#524748"/>
<stop offset="1" stop-color="#3B302D"/>
</linearGradient>
<linearGradient id="paint5_linear_0_1" x1="567.293" y1="404.485" x2="549.657" y2="390.398" gradientUnits="userSpaceOnUse">
<stop stop-color="#473C3D"/>
<stop offset="1" stop-color="#665957"/>
</linearGradient>
<linearGradient id="paint6_linear_0_1" x1="581.353" y1="364.36" x2="597.125" y2="365.07" gradientUnits="userSpaceOnUse">
<stop stop-color="#382E2A"/>
<stop offset="1" stop-color="#9E8277"/>
</linearGradient>
<linearGradient id="paint7_linear_0_1" x1="545.906" y1="380.553" x2="535.737" y2="354.796" gradientUnits="userSpaceOnUse">
<stop stop-color="#BEB2AE"/>
<stop offset="1" stop-color="#706562"/>
</linearGradient>
<linearGradient id="paint8_linear_0_1" x1="601.821" y1="396.225" x2="596.334" y2="385.747" gradientUnits="userSpaceOnUse">
<stop stop-color="#382E2A"/>
<stop offset="1" stop-color="#554944"/>
</linearGradient>
<linearGradient id="paint9_linear_0_1" x1="506.293" y1="352.512" x2="514.125" y2="366.078" gradientUnits="userSpaceOnUse">
<stop stop-color="#715349"/>
<stop offset="1" stop-color="#D79E8B"/>
</linearGradient>
<linearGradient id="paint10_linear_0_1" x1="486.301" y1="365.823" x2="492.328" y2="376.261" gradientUnits="userSpaceOnUse">
<stop stop-color="#715349"/>
<stop offset="1" stop-color="#D79E8B"/>
</linearGradient>
<linearGradient id="paint11_linear_0_1" x1="503.623" y1="362.176" x2="511.571" y2="375.942" gradientUnits="userSpaceOnUse">
<stop stop-color="#736E6C"/>
<stop offset="1" stop-color="#241C18"/>
</linearGradient>
<linearGradient id="paint12_linear_0_1" x1="502.305" y1="361.446" x2="506.638" y2="368.953" gradientUnits="userSpaceOnUse">
<stop stop-color="#372E29"/>
<stop offset="1" stop-color="#372E29"/>
</linearGradient>
<linearGradient id="paint13_linear_0_1" x1="540.031" y1="504.092" x2="558.526" y2="517.765" gradientUnits="userSpaceOnUse">
<stop stop-color="#382E2A"/>
<stop offset="1" stop-color="#8E8885"/>
</linearGradient>
<linearGradient id="paint14_linear_0_1" x1="489.924" y1="473.907" x2="518.787" y2="519.901" gradientUnits="userSpaceOnUse">
<stop stop-color="#3F3536"/>
<stop offset="0.271208" stop-color="#615455"/>
<stop offset="0.507316" stop-color="#695D57"/>
<stop offset="0.768809" stop-color="#675758"/>
<stop offset="1" stop-color="#382E2A"/>
</linearGradient>
<linearGradient id="paint15_linear_0_1" x1="526.606" y1="483.819" x2="514.08" y2="508.742" gradientUnits="userSpaceOnUse">
<stop stop-color="#BDB1AD"/>
<stop offset="1" stop-color="#4F4441"/>
</linearGradient>
<linearGradient id="paint16_linear_0_1" x1="508.68" y1="468.615" x2="525.183" y2="500.85" gradientUnits="userSpaceOnUse">
<stop offset="0.0692049" stop-color="#3F3536"/>
<stop offset="0.288204" stop-color="#655856"/>
<stop offset="0.689746" stop-color="#665A57"/>
<stop offset="1" stop-color="#3A2F2C"/>
</linearGradient>
<linearGradient id="paint17_linear_0_1" x1="507.182" y1="501.651" x2="528.833" y2="488.94" gradientUnits="userSpaceOnUse">
<stop stop-color="#665657"/>
<stop offset="0.306906" stop-color="#524748"/>
<stop offset="1" stop-color="#3B302D"/>
</linearGradient>
<linearGradient id="paint18_linear_0_1" x1="502.098" y1="494.877" x2="506.245" y2="479.302" gradientUnits="userSpaceOnUse">
<stop stop-color="#473C3D"/>
<stop offset="1" stop-color="#665957"/>
</linearGradient>
<linearGradient id="paint19_linear_0_1" x1="571.596" y1="502.995" x2="571.459" y2="512.117" gradientUnits="userSpaceOnUse">
<stop stop-color="#382E2A"/>
<stop offset="1" stop-color="#9E8277"/>
</linearGradient>
<linearGradient id="paint20_linear_0_1" x1="543.549" y1="482.529" x2="565.01" y2="457.112" gradientUnits="userSpaceOnUse">
<stop stop-color="#BEB2AE"/>
<stop offset="1" stop-color="#706562"/>
</linearGradient>
<linearGradient id="paint21_linear_0_1" x1="516.403" y1="514.812" x2="523.072" y2="504.336" gradientUnits="userSpaceOnUse">
<stop stop-color="#382E2A"/>
<stop offset="1" stop-color="#554944"/>
</linearGradient>
<linearGradient id="paint22_linear_0_1" x1="592.117" y1="459.659" x2="584.284" y2="473.225" gradientUnits="userSpaceOnUse">
<stop stop-color="#715349"/>
<stop offset="1" stop-color="#D79E8B"/>
</linearGradient>
<linearGradient id="paint23_linear_0_1" x1="569.062" y1="448.116" x2="563.035" y2="458.555" gradientUnits="userSpaceOnUse">
<stop stop-color="#715349"/>
<stop offset="1" stop-color="#D79E8B"/>
</linearGradient>
<linearGradient id="paint24_linear_0_1" x1="575.379" y1="458.117" x2="567.431" y2="471.884" gradientUnits="userSpaceOnUse">
<stop stop-color="#736E6C"/>
<stop offset="1" stop-color="#241C18"/>
</linearGradient>
<linearGradient id="paint25_linear_0_1" x1="576.642" y1="457.356" x2="572.308" y2="464.862" gradientUnits="userSpaceOnUse">
<stop stop-color="#372E29"/>
<stop offset="1" stop-color="#372E29"/>
</linearGradient>
<linearGradient id="paint26_linear_0_1" x1="456.098" y1="446.162" x2="459.934" y2="430.593" gradientUnits="userSpaceOnUse">
<stop stop-color="#382E2A"/>
<stop offset="1" stop-color="#8E8885"/>
</linearGradient>
<linearGradient id="paint27_linear_0_1" x1="403.817" y1="475.091" x2="428.25" y2="429.092" gradientUnits="userSpaceOnUse">
<stop stop-color="#3F3536"/>
<stop offset="0.271208" stop-color="#615455"/>
<stop offset="0.507316" stop-color="#695D57"/>
<stop offset="0.768809" stop-color="#675758"/>
<stop offset="1" stop-color="#382E2A"/>
</linearGradient>
<linearGradient id="paint28_linear_0_1" x1="420.985" y1="453.914" x2="437.503" y2="478.82" gradientUnits="userSpaceOnUse">
<stop stop-color="#BDB1AD"/>
<stop offset="1" stop-color="#4F4441"/>
</linearGradient>
<linearGradient id="paint29_linear_0_1" x1="394.65" y1="464.263" x2="415.629" y2="432.041" gradientUnits="userSpaceOnUse">
<stop offset="0.0692049" stop-color="#3F3536"/>
<stop offset="0.288204" stop-color="#655856"/>
<stop offset="0.689746" stop-color="#665A57"/>
<stop offset="1" stop-color="#3A2F2C"/>
</linearGradient>
<linearGradient id="paint30_linear_0_1" x1="451.871" y1="465.127" x2="448.702" y2="448.938" gradientUnits="userSpaceOnUse">
<stop stop-color="#665657"/>
<stop offset="0.306906" stop-color="#524748"/>
<stop offset="1" stop-color="#3B302D"/>
</linearGradient>
<linearGradient id="paint31_linear_0_1" x1="440.137" y1="468.063" x2="422.501" y2="453.976" gradientUnits="userSpaceOnUse">
<stop stop-color="#473C3D"/>
<stop offset="1" stop-color="#665957"/>
</linearGradient>
<linearGradient id="paint32_linear_0_1" x1="454.197" y1="427.938" x2="469.968" y2="428.648" gradientUnits="userSpaceOnUse">
<stop stop-color="#382E2A"/>
<stop offset="1" stop-color="#9E8277"/>
</linearGradient>
<linearGradient id="paint33_linear_0_1" x1="418.749" y1="444.131" x2="408.581" y2="418.375" gradientUnits="userSpaceOnUse">
<stop stop-color="#BEB2AE"/>
<stop offset="1" stop-color="#706562"/>
</linearGradient>
<linearGradient id="paint34_linear_0_1" x1="474.665" y1="459.804" x2="469.178" y2="449.326" gradientUnits="userSpaceOnUse">
<stop stop-color="#382E2A"/>
<stop offset="1" stop-color="#554944"/>
</linearGradient>
<linearGradient id="paint35_linear_0_1" x1="379.137" y1="416.091" x2="386.969" y2="429.656" gradientUnits="userSpaceOnUse">
<stop stop-color="#715349"/>
<stop offset="1" stop-color="#D79E8B"/>
</linearGradient>
<linearGradient id="paint36_linear_0_1" x1="359.145" y1="429.401" x2="365.172" y2="439.84" gradientUnits="userSpaceOnUse">
<stop stop-color="#715349"/>
<stop offset="1" stop-color="#D79E8B"/>
</linearGradient>
<linearGradient id="paint37_linear_0_1" x1="376.467" y1="425.754" x2="384.415" y2="439.521" gradientUnits="userSpaceOnUse">
<stop stop-color="#736E6C"/>
<stop offset="1" stop-color="#241C18"/>
</linearGradient>
<linearGradient id="paint38_linear_0_1" x1="375.149" y1="425.025" x2="379.482" y2="432.531" gradientUnits="userSpaceOnUse">
<stop stop-color="#372E29"/>
<stop offset="1" stop-color="#372E29"/>
</linearGradient>
<linearGradient id="paint39_linear_0_1" x1="429.001" y1="399.507" x2="533.57" y2="357.501" gradientUnits="userSpaceOnUse">
<stop stop-color="#382E2A"/>
<stop offset="1" stop-color="#8E8885"/>
</linearGradient>
<linearGradient id="paint40_linear_0_1" x1="118.869" y1="392.921" x2="440.62" y2="379.515" gradientUnits="userSpaceOnUse">
<stop stop-color="#3F3536"/>
<stop offset="0.271208" stop-color="#615455"/>
<stop offset="0.507316" stop-color="#695D57"/>
<stop offset="0.768809" stop-color="#675758"/>
<stop offset="1" stop-color="#382E2A"/>
</linearGradient>
<linearGradient id="paint41_linear_0_1" x1="281.979" y1="333.817" x2="294.045" y2="508.098" gradientUnits="userSpaceOnUse">
<stop stop-color="#BDB1AD"/>
<stop offset="1" stop-color="#4F4441"/>
</linearGradient>
<linearGradient id="paint42_linear_0_1" x1="147.917" y1="308.345" x2="373.359" y2="321.878" gradientUnits="userSpaceOnUse">
<stop offset="0.0692049" stop-color="#3F3536"/>
<stop offset="0.288204" stop-color="#655856"/>
<stop offset="0.689746" stop-color="#665A57"/>
<stop offset="1" stop-color="#3A2F2C"/>
</linearGradient>
<linearGradient id="paint43_linear_0_1" x1="316.699" y1="486.201" x2="368.983" y2="380.292" gradientUnits="userSpaceOnUse">
<stop stop-color="#665657"/>
<stop offset="0.306906" stop-color="#524748"/>
<stop offset="1" stop-color="#3B302D"/>
</linearGradient>
<linearGradient id="paint44_linear_0_1" x1="265.755" y1="466.059" x2="226.877" y2="360.629" gradientUnits="userSpaceOnUse">
<stop stop-color="#473C3D"/>
<stop offset="1" stop-color="#665957"/>
</linearGradient>
<linearGradient id="paint45_linear_0_1" x1="518.853" y1="298.141" x2="565.445" y2="347.219" gradientUnits="userSpaceOnUse">
<stop stop-color="#382E2A"/>
<stop offset="1" stop-color="#9E8277"/>
</linearGradient>
<linearGradient id="paint46_linear_0_1" x1="326.53" y1="275.723" x2="360.182" y2="96.5253" gradientUnits="userSpaceOnUse">
<stop stop-color="#BEB2AE"/>
<stop offset="1" stop-color="#706562"/>
</linearGradient>
<linearGradient id="paint47_linear_0_1" x1="407.915" y1="527.314" x2="411.49" y2="454.026" gradientUnits="userSpaceOnUse">
<stop stop-color="#382E2A"/>
<stop offset="1" stop-color="#554944"/>
</linearGradient>
<linearGradient id="paint48_linear_0_1" x1="353.654" y1="8.63013" x2="353.654" y2="103.525" gradientUnits="userSpaceOnUse">
<stop stop-color="#715349"/>
<stop offset="1" stop-color="#D79E8B"/>
</linearGradient>
<linearGradient id="paint49_linear_0_1" x1="223.268" y1="17.9065" x2="223.268" y2="90.9228" gradientUnits="userSpaceOnUse">
<stop stop-color="#715349"/>
<stop offset="1" stop-color="#D79E8B"/>
</linearGradient>
<linearGradient id="paint50_linear_0_1" x1="294.869" y1="51.2402" x2="294.869" y2="147.537" gradientUnits="userSpaceOnUse">
<stop stop-color="#736E6C"/>
<stop offset="1" stop-color="#241C18"/>
</linearGradient>
<linearGradient id="paint51_linear_0_1" x1="294.702" y1="43.4211" x2="294.702" y2="95.9276" gradientUnits="userSpaceOnUse">
<stop stop-color="#372E29"/>
<stop offset="1" stop-color="#372E29"/>
</linearGradient>
</defs>
</svg>
